<?xml version="1.0" standalone="no"?><!DOCTYPE svg PUBLIC "-//W3C//DTD SVG 1.1//EN" "http://www.w3.org/Graphics/SVG/1.1/DTD/svg11.dtd"><svg t="1624083420658" class="icon" viewBox="0 0 1024 1024" version="1.1" xmlns="http://www.w3.org/2000/svg" p-id="794" xmlns:xlink="http://www.w3.org/1999/xlink" width="200" height="200"><defs><style type="text/css"></style></defs><path d="M372.5312 1005.1072s-64.1024-140.6976 162.9696-432.7936c224.9216-289.3312 105.4208-500.2752 105.4208-500.2752s149.76 209.92-58.9824 479.8976c-285.5936 369.664-199.2704 437.9648-209.408 453.1712z" fill="#8E9340" p-id="795"></path><path d="M372.5312 1005.1072s-64.1024-140.6976 162.9696-432.7936c224.9216-289.3312 105.4208-500.2752 105.4208-500.2752s149.76 209.92-58.9824 479.8976c-285.5936 369.664-199.2704 437.9648-209.408 453.1712z" fill="#8E9340" p-id="796"></path><path d="M420.6592 32.256s13.4656 20.48 12.5952 32.5632S419.84 86.2208 419.84 86.2208a48.128 48.128 0 0 1-10.24-23.0912c-1.4848-11.264 11.0592-30.8736 11.0592-30.8736zM350.8736 84.1728s23.552-8.6016 35.84-4.7616S404.48 98.2016 404.48 98.2016a49.5616 49.5616 0 0 1-25.6 5.12c-11.4176-1.8432-28.0064-19.1488-28.0064-19.1488zM367.5136 117.4528s28.4672-7.8336 43.5712-3.0208 23.3472 21.0944 23.3472 21.0944a65.3312 65.3312 0 0 1-31.2832 3.7888c-14.0288-2.4064-35.6352-21.8624-35.6352-21.8624zM390.6048 150.1184s33.6384-2.1504 49.408 6.7072 21.248 29.0304 21.248 29.0304a74.5984 74.5984 0 0 1-35.84-3.0208c-15.4112-6.0416-34.816-32.7168-34.816-32.7168zM405.9136 193.1264s33.6384-2.1504 49.408 6.7072 21.248 29.0304 21.248 29.0304a74.5984 74.5984 0 0 1-35.84-3.0208c-15.4112-5.9904-34.816-32.7168-34.816-32.7168zM427.9296 237.0048s33.6384-2.1504 49.408 6.7072 21.248 29.0304 21.248 29.0304a74.5984 74.5984 0 0 1-35.84-3.0208c-15.36-5.9904-34.816-32.7168-34.816-32.7168zM438.016 278.8864S476.16 283.648 491.8272 296.96s17.5616 36.9664 17.5616 36.9664a84.8896 84.8896 0 0 1-39.424-11.008c-15.9232-10.0864-31.9488-44.032-31.9488-44.032zM448.768 332.4928s36.4032 12.0832 49.2544 28.16 10.24 39.68 10.24 39.68a84.8896 84.8896 0 0 1-36.5056-18.4832c-13.8752-12.9024-22.9888-49.3568-22.9888-49.3568zM441.7024 380.416s38.0928 12.6464 51.5072 29.44 10.24 41.5232 10.24 41.5232a88.7808 88.7808 0 0 1-38.1952-19.3536c-14.0288-13.5168-23.552-51.6096-23.552-51.6096zM437.8624 434.176s34.6112 20.48 44.2368 39.5776 1.5872 42.752 1.5872 42.752A88.7808 88.7808 0 0 1 450.56 489.6256c-11.3664-16.1792-12.6976-55.4496-12.6976-55.4496zM350.5664 11.8272s29.9008 10.752 38.5536 24.32 2.3552 33.024 2.3552 33.024a62.7712 62.7712 0 0 1-28.928-16.0768c-9.8816-10.9568-11.9808-41.2672-11.9808-41.2672zM456.7552 63.8464S466.8928 87.04 465.92 101.888a64.3584 64.3584 0 0 1-10.24 28.3648 59.2384 59.2384 0 0 1-12.9024-28.416c-1.4848-13.8752 13.9776-37.9904 13.9776-37.9904zM534.0672 134.8608s3.3792 31.0784-3.5328 48.64a80.2304 80.2304 0 0 1-22.8864 29.8496 73.8304 73.8304 0 0 1-4.6592-38.656c3.6352-16.9472 31.0784-39.8336 31.0784-39.8336zM558.08 183.4496s3.6864 33.8944-3.8912 53.0944a87.6032 87.6032 0 0 1-24.9856 32.5632s-9.4208-22.016-5.12-42.1888c4.1472-18.4832 33.9968-43.4688 33.9968-43.4688zM584.0384 242.432s-1.1776 33.9456-11.4176 51.7632a87.04 87.04 0 0 1-29.2864 28.3648s-6.144-23.04 1.024-42.2912c6.6048-17.5104 39.68-37.8368 39.68-37.8368zM603.648 294.8608s-5.7344 40.96-20.48 60.928a105.6256 105.6256 0 0 1-38.8608 30.72s-4.4544-28.5184 6.6048-50.7904c10.2912-20.5312 52.736-40.8576 52.736-40.8576zM600.5248 439.1936s-17.7664 37.12-37.7344 51.968a105.6256 105.6256 0 0 1-46.08 17.5104s4.352-28.5184 21.6064-46.4384c15.616-16.4864 62.208-23.04 62.208-23.04zM617.1648 365.2096s-14.08 41.9328-33.4848 60.416a113.6128 113.6128 0 0 1-47.104 24.9344s0.9216-31.0272 16.9472-52.4288c14.7968-19.8656 63.6416-32.9216 63.6416-32.9216zM494.2848 92.16s13.824 31.6416 7.8848 46.4384c-5.12 12.8512-21.504 22.1184-21.504 22.1184a62.3104 62.3104 0 0 1-8.0896-31.8464c1.2288-14.7456 21.7088-36.7104 21.7088-36.7104z" fill="#E89724" p-id="797"></path><path d="M320.9728 989.184s-46.3872-95.3856 21.0432-232.7552c31.1296-63.4368 97.28-119.5008 140.5952-228.352 103.3728-260.352-84.1216-448.768-84.1216-448.768S640 286.72 476.8768 586.3424c-34.2528 62.8736-118.1184 157.1328-143.36 226.6624-35.6352 99.6864-6.5536 167.2192-12.544 176.1792zM796.3648 121.7024s2.816 24.1664-3.5328 34.7648-21.8624 12.9024-21.8624 12.9024a48.128 48.128 0 0 1 1.1264-25.344c4.1472-10.5472 24.2688-22.3232 24.2688-22.3232zM710.6048 136.3456s24.8832 3.0208 33.8944 11.9296 7.6288 24.9856 7.6288 24.9856a49.5616 49.5616 0 0 1-25.088-7.2704c-9.472-6.7072-16.4352-29.6448-16.4352-29.6448zM710.3488 173.568s28.928 5.9392 40.192 17.0496 11.264 29.44 11.264 29.44a65.3312 65.3312 0 0 1-29.6448-10.8032c-11.5712-8.6528-21.8112-35.6864-21.8112-35.6864zM716.1344 213.1456s30.72 13.3632 40.96 28.416 5.7856 35.4816 5.7856 35.4816a74.5984 74.5984 0 0 1-30.72-18.944c-10.8544-12.3392-16.0256-44.9536-16.0256-44.9536zM710.1952 258.4064s30.72 13.3632 40.96 28.416 5.7856 35.7376 5.7856 35.7376a74.5984 74.5984 0 0 1-30.72-18.944c-10.8032-12.5952-16.0256-45.2096-16.0256-45.2096zM709.9392 307.5072s30.72 13.3632 40.96 28.416 5.7344 35.4816 5.7344 35.4816a74.5984 74.5984 0 0 1-30.72-18.944c-10.752-12.3392-15.9744-44.9536-15.9744-44.9536zM699.904 349.3888s31.7952 21.504 39.7824 40.448-1.0752 40.96-1.0752 40.96a84.8896 84.8896 0 0 1-30.1568-27.6992c-9.6256-16.1792-8.5504-53.7088-8.5504-53.7088zM688.2816 398.4384s26.9824 27.2896 31.1296 47.4624-9.0624 39.8848-9.0624 39.8848a84.8896 84.8896 0 0 1-24.2688-33.024c-6.2464-17.5616 2.2016-54.3232 2.2016-54.3232zM651.1616 437.9136s28.2112 28.5696 32.5632 49.6128-9.472 41.728-9.472 41.728a88.7808 88.7808 0 0 1-25.2416-34.56c-6.656-18.5344 2.1504-56.7808 2.1504-56.7808zM628.4288 490.0352s24.1152 32.0512 25.6 53.5552-15.0016 40.0896-15.0016 40.0896a88.7808 88.7808 0 0 1-20.48-37.632c-4.1472-19.2512 9.8816-56.0128 9.8816-56.0128zM743.168 71.68s21.76 23.1424 23.296 39.168-12.8512 30.72-12.8512 30.72a62.7712 62.7712 0 0 1-18.4832-27.4432c-3.8912-14.4384 8.0384-42.4448 8.0384-42.4448zM814.08 166.2464s-1.3824 25.0368-9.216 38.0416a64.3584 64.3584 0 0 1-22.016 20.48 59.2384 59.2384 0 0 1 1.3824-31.1808c5.2224-12.8512 29.8496-27.3408 29.8496-27.3408zM850.8416 264.6528s-11.0592 29.2352-25.2416 41.728a80.2304 80.2304 0 0 1-33.8944 16.1792 73.8304 73.8304 0 0 1 13.3632-36.5568c10.9568-13.4144 45.7728-21.3504 45.7728-21.3504zM850.3296 318.8736s-12.0832 31.8976-27.5456 45.568a87.6032 87.6032 0 0 1-37.0176 17.7152s1.5872-23.8592 14.592-39.8848c11.9296-14.592 49.9712-23.3984 49.9712-23.3984zM846.592 383.1296s-16.4864 29.696-33.6384 40.96a87.04 87.04 0 0 1-39.0144 12.1344s5.12-23.296 20.0704-37.2224c13.8752-12.7488 52.5824-15.872 52.5824-15.872zM840.2944 438.784s-23.6032 33.6896-45.7216 45.1072a105.6256 105.6256 0 0 1-48.5376 9.6768s8.96-27.4432 28.928-42.2912c18.2784-13.6704 65.3312-12.4928 65.3312-12.4928zM772.0448 566.016s-32.6656 25.0368-57.1904 29.184a105.6256 105.6256 0 0 1-49.2032-5.4272s16.8448-23.4496 40.3456-31.5904c21.6064-7.4752 66.048 7.8336 66.048 7.8336zM813.056 514.304s-31.6928 28.2112-56.576 34.3552a108.9024 108.9024 0 0 1-51.2-1.8432s15.36-25.6 39.0656-35.5328c21.8112-9.5232 68.7104 3.0208 68.7104 3.0208zM834.8672 208.384s-2.048 34.4576-14.0288 44.9536c-10.24 9.1136-29.184 9.984-29.184 9.984a62.3104 62.3104 0 0 1 7.0656-32.0512c7.8336-12.4928 36.1472-22.8864 36.1472-22.8864z" fill="#E89724" p-id="798"></path><path d="M273.4592 929.3312s1.9456-106.0352 124.3648-197.888c56.32-42.3936 141.0048-62.3104 228.864-139.7248C836.9152 406.5792 755.3024 153.6 755.3024 153.6s121.2928 294.1952-160.2048 487.424c-59.0336 40.4992-176.5376 86.4768-230.4 137.0624-77.1584 72.6528-81.8688 145.9712-91.2384 151.2448z" fill="#E89724" p-id="799"></path></svg>